:SAMPLES-PER-SECOND 30
:FULLY-SPECIFIED
:DEGREES
139
root  -43.7365 40.0782 -21.2937 173.121 -38.7946 -176.923
RightUpLeg  -11.9417 -10.8859 2.69865
RightLeg  16.7067 -5.03273 3.37835
RightFoot  1.29867 1.02156 -9.11412
RightToes  5.82063e-011 0 -3.6325e-017
Spine  2.53323 -1.4485 9.74883
Spine1  9.63143 -1.45544 2.02482
HEad  -11.6377 -0.496821 -0.228174
LeftShoulder1  8.59727 -11.6358 -49.567
LeftArm  -4.32069 15.4839 -31.7217
LeftForeArm  35.4949 -5.02883 -7.18854
LeftHand  -0.244104 0.0205437 5.32207
RightShoulder  5.76416 9.33089 38.8319
RightArm  1.61533 -8.69957 33.7408
RightForeArm  -3.96838 25.8975 5.75889
RightHand  -0.976935 1.74021 -16.005
LeftUpLeg  -11.4997 7.22828 5.67561
LeftLeg  62.1673 4.57277 9.92901
LeftFoot  2.21638 0.483391 -4.18889
LeftToes  1.2005e-010 6.1915e-012 3.32694e-011
140
root  -44.2492 40.3207 -22.026 174.034 -37.8923 -177.666
RightUpLeg  -10.2118 -9.24585 1.79074
RightLeg  15.2892 -5.61195 4.03163
RightFoot  0.737203 0.944058 -8.84955
RightToes  5.82063e-011 0 -3.6325e-017
Spine  2.98111 -0.773521 10.3484
Spine1  9.35674 -0.411357 0.629988
HEad  -12.744 -0.976765 -0.0498742
LeftShoulder1  8.58067 -11.6038 -49.5756
LeftArm  -5.48843 18.7529 -32.3931
LeftForeArm  32.9709 -7.32752 -6.90377
LeftHand  -0.244104 0.0205437 5.32207
RightShoulder  5.83801 9.42421 39.0681
RightArm  3.23097 -6.16011 33.9969
RightForeArm  -2.24067 27.9262 6.15146
RightHand  -0.905864 1.35693 -15.6773
LeftUpLeg  -15.269 8.03733 4.60877
LeftLeg  59.2804 5.00782 9.58398
LeftFoot  0.636066 0.426477 -4.11072
LeftToes  1.2005e-010 6.1915e-012 3.32694e-011
141
root  -44.7568 40.5354 -22.7111 174.783 -37.2636 -178.245
RightUpLeg  -8.36875 -8.22655 1.02741
RightLeg  13.6284 -5.91547 4.60946
RightFoot  0.258548 0.891309 -8.7333
RightToes  5.82063e-011 0 -3.6325e-017
Spine  3.28172 -0.291534 10.8877
Spine1  9.17177 0.373744 -0.7027
HEad  -13.69 -1.37092 -0.158268
LeftShoulder1  8.5461 -11.5751 -49.47
LeftArm  -5.85028 21.3826 -32.823
LeftForeArm  29.1424 -9.35146 -6.72401
LeftHand  -0.244104 0.0205437 5.32207
RightShoulder  5.85261 9.41929 39.1921
RightArm  4.60085 -4.19158 34.4623
RightForeArm  -1.21921 29.8201 6.56088
RightHand  -0.880619 1.22594 -15.5389
LeftUpLeg  -17.7892 8.84713 3.649
LeftLeg  53.1448 5.28592 8.01649
LeftFoot  -0.894977 0.421228 -4.55068
LeftToes  1.2005e-010 6.1915e-012 3.32694e-011
142
root  -45.2654 40.7202 -23.3696 175.449 -36.5699 -178.845
RightUpLeg  -6.54132 -7.87932 0.39301
RightLeg  12.1232 -5.57276 4.95513
RightFoot  -0.15217 0.862589 -8.79071
RightToes  5.82063e-011 0 -3.6325e-017
Spine  3.373 0.185793 11.1576
Spine1  9.29504 1.07067 -1.79561
HEad  -14.6615 -1.60029 -0.370527
LeftShoulder1  8.49749 -11.5387 -49.3077
LeftArm  -5.48044 23.0147 -33.1452
LeftForeArm  26.8587 -10.5596 -6.62104
LeftHand  -0.244104 0.0205437 5.32207
RightShoulder  5.89674 9.48741 39.2895
RightArm  5.6321 -2.88247 34.8934
RightForeArm  -1.3317 31.4287 6.976
RightHand  -0.902047 1.27921 -15.7878
LeftUpLeg  -18.5605 9.81364 2.62011
LeftLeg  43.7417 4.80995 5.33605
LeftFoot  -2.2671 0.380842 -4.61841
LeftToes  1.2005e-010 6.1915e-012 3.32694e-011
143
root  -45.7787 40.872 -24.0105 175.883 -35.7674 -179.413
RightUpLeg  -4.76873 -7.89681 -0.166634
RightLeg  11.0737 -4.67763 5.05384
RightFoot  -0.703208 0.794316 -8.55538
RightToes  5.82063e-011 0 -3.6325e-017
Spine  3.35444 0.632505 11.1294
Spine1  9.71106 1.6525 -2.50718
HEad  -15.6055 -1.53377 -0.681644
LeftShoulder1  8.4836 -11.5431 -49.2129
LeftArm  -5.60813 23.9818 -33.4621
LeftForeArm  26.7459 -11.2174 -6.41398
LeftHand  -0.244104 0.0205437 5.32207
RightShoulder  6.00299 9.6835 39.414
RightArm  6.32762 -2.1424 35.1847
RightForeArm  -1.34493 32.5043 7.25913
RightHand  -0.897601 1.24232 -15.7936
LeftUpLeg  -17.5425 10.5646 1.57098
LeftLeg  32.1382 3.3297 2.63783
LeftFoot  -2.61233 0.336194 -4.21241
LeftToes  1.2005e-010 6.1915e-012 3.32694e-011
144
root  -46.3084 40.9586 -24.6375 175.87 -34.9896 -179.703
RightUpLeg  -3.07827 -8.00543 -0.584403
RightLeg  10.7524 -3.6806 5.02443
RightFoot  -1.70676 0.673708 -8.11031
RightToes  5.82063e-011 0 -3.6325e-017
Spine  3.19997 0.944175 11.155
Spine1  10.3356 2.07833 -3.02313
HEad  -16.1772 -1.25801 -1.05658
LeftShoulder1  8.49373 -11.5998 -49.0872
LeftArm  -6.85094 24.5974 -33.7623
LeftForeArm  27.7036 -11.5571 -5.99988
LeftHand  -0.244104 0.0205437 5.32207
RightShoulder  6.12622 9.88893 39.6251
RightArm  6.8794 -1.84131 35.4743
RightForeArm  -0.682702 32.6922 7.27315
RightHand  -0.859025 1.13764 -15.3627
LeftUpLeg  -15.2284 11.0243 0.851373
LeftLeg  20.2852 1.28279 0.777856
LeftFoot  -1.25191 0.450164 -4.94178
LeftToes  1.2005e-010 6.1915e-012 3.32694e-011
